<svg xmlns="http://www.w3.org/2000/svg" viewBox="0 0 1200 1400">
  <defs>
    <linearGradient id="g94344" x1="0" y1="0" x2="1" y2="1" gradientTransform="rotate(135 .5 .5)">
      <stop offset="0" stop-color="#1F5C4E"/>
      <stop offset="1" stop-color="#16211C"/>
    </linearGradient>
  </defs>
  <rect width="1200" height="1400" fill="url(#g94344)"/>
  <g transform="translate(410.0 844.0) scale(1.0) rotate(-8)"><g opacity="0.25" fill="#D3ECE0" transform="">
      <ellipse cx="190" cy="430" rx="150" ry="330"/>
      <circle cx="70" cy="110" r="55"/>
      <circle cx="155" cy="65" r="49"/>
      <circle cx="242" cy="65" r="44"/>
      <circle cx="315" cy="100" r="39"/>
      <circle cx="365" cy="155" r="33"/>
    </g></g>
  <circle cx="600.0" cy="700.0" r="138.0" fill="rgba(22,33,28,.28)" stroke="#fff" stroke-opacity=".65"/>
    <g transform="translate(600.0 700.0)" stroke="#fff" fill="#fff" fill-opacity=".92" stroke-width="2" stroke-linecap="round" stroke-linejoin="round"><path d="M0 -22c8 8 14 16 14 24a14 14 0 1 1-28 0c0-8 6-16 14-24Z"/><path d="M-20 14c4 6 10 10 20 10s16-4 20-10" fill="none"/></g>
</svg>