<svg xmlns="http://www.w3.org/2000/svg" viewBox="0 0 1100 1350">
  <defs>
    <linearGradient id="g17295" x1="0" y1="0" x2="1" y2="1" gradientTransform="rotate(130 .5 .5)">
      <stop offset="0" stop-color="#5A303A"/>
      <stop offset="1" stop-color="#7a4a55"/>
    </linearGradient>
  </defs>
  <rect width="1100" height="1350" fill="url(#g17295)"/>
  <g transform="translate(360.0 807.0) scale(1.0) rotate(-8)"><g opacity="0.25" fill="#E8C9CD" transform="">
      <ellipse cx="190" cy="430" rx="150" ry="330"/>
      <circle cx="70" cy="110" r="55"/>
      <circle cx="155" cy="65" r="49"/>
      <circle cx="242" cy="65" r="44"/>
      <circle cx="315" cy="100" r="39"/>
      <circle cx="365" cy="155" r="33"/>
    </g></g>
  <circle cx="550.0" cy="675.0" r="126.5" fill="rgba(36,28,30,.28)" stroke="#fff" stroke-opacity=".65"/>
    <g transform="translate(550.0 675.0)" stroke="#fff" fill="#fff" fill-opacity=".92" stroke-width="2" stroke-linecap="round" stroke-linejoin="round"><path d="M0 20C-22 4 -22 -14 -8 -14c6 0 8 6 8 6s2-6 8-6c14 0 14 18-8 34Z"/><path d="M-18 0h9l4-9 5 15 4-6h10" fill="none"/></g>
</svg>